<svg width="201" height="200" viewBox="0 0 201 200" fill="none" xmlns="http://www.w3.org/2000/svg">
<path d="M171.87 140.77C171.39 142.6 171.24 144.5 170.62 146.31C166.74 157.54 157.52 164.16 145.61 164.17C125.69 164.18 105.77 164.17 85.86 164.17C75.65 164.17 65.43 164.18 55.22 164.17C47.1 164.16 40.18 161.29 35.11 154.88C28.69 146.76 27.29 137.68 31.7 128.26C35.4 120.37 40.23 113.06 44.58 105.51C55.75 86.09 66.99 66.72 78.17 47.3C82.25 40.22 88.12 35.76 96.21 34.18C105.39 32.39 116.13 36.63 121.17 44.5C126.58 52.94 131.31 61.78 136.34 70.44C146.74 88.37 157.06 106.36 167.47 124.28C169.71 128.14 171.28 132.18 171.89 136.6V140.78L171.87 140.77ZM100.26 152.68C115.25 152.68 130.24 152.68 145.24 152.68C147.62 152.68 149.96 152.41 152.15 151.38C159.75 147.8 162.52 138.91 158.29 131.48C153.65 123.34 148.94 115.25 144.26 107.14C133.85 89.11 123.43 71.08 113.05 53.04C111.28 49.97 108.99 47.52 105.62 46.24C98.9 43.69 92.07 46.24 88.28 52.79C76.28 73.54 64.29 94.3 52.3 115.06C48.92 120.92 45.41 126.72 42.24 132.7C39.79 137.33 40.26 142.06 43.1 146.44C45.98 150.88 50.26 152.69 55.43 152.68C70.38 152.68 85.32 152.68 100.27 152.68H100.26Z" fill="#C12629"/>
<path d="M107.8 82.73C107.23 92.45 106.67 102.17 106.1 111.89C106.02 113.28 106.18 114.67 105.88 116.05C105.31 118.62 103.08 120.43 100.48 120.4C97.8299 120.37 95.5399 118.61 95.2399 115.95C94.8199 112.27 94.6899 108.56 94.4599 104.86C93.9999 97.46 93.5899 90.05 93.0899 82.65C92.6699 76.41 98.2099 71.99 103.53 74.45C107.05 76.08 108.04 79.12 107.79 82.74L107.8 82.73Z" fill="#C12629"/>
<path d="M93.27 132.67C93.31 128.66 96.68 125.37 100.7 125.44C104.68 125.51 107.74 128.76 107.72 132.89C107.7 136.82 104.47 140.04 100.54 140.04C96.51 140.04 93.23 136.71 93.26 132.67H93.27Z" fill="#C12629"/>
</svg>
