<svg width="24" height="24" viewBox="0 0 24 24" fill="none" xmlns="http://www.w3.org/2000/svg">
<path fill-rule="evenodd" clip-rule="evenodd" d="M8.72997 14.1997C8.51856 14.466 8.51856 14.8976 8.72997 15.1639L11.6172 18.8003C11.8286 19.0666 12.1713 19.0666 12.3828 18.8003L15.27 15.1639C15.4814 14.8976 15.4814 14.466 15.27 14.1997C15.0586 13.9334 14.7159 13.9334 14.5044 14.1997L12 17.3539L9.49556 14.1997C9.28415 13.9334 8.94138 13.9334 8.72997 14.1997Z" fill="#424750"/>
<path fill-rule="evenodd" clip-rule="evenodd" d="M8.72997 9.8003C8.51856 9.53404 8.51856 9.10236 8.72997 8.83609L11.6172 5.19971C11.8286 4.93343 12.1713 4.93343 12.3828 5.19971L15.27 8.83609C15.4814 9.10236 15.4814 9.53404 15.27 9.8003C15.0586 10.0666 14.7159 10.0666 14.5044 9.8003L12 6.64608L9.49556 9.8003C9.28415 10.0666 8.94138 10.0666 8.72997 9.8003Z" fill="#91949A"/>
</svg>
