<svg width="80" height="58" viewBox="0 0 80 58" fill="none" xmlns="http://www.w3.org/2000/svg">
<g clip-path="url(#clip0_14374_48575)">
<path d="M79.7778 20.4312L67.781 8.7625L66.6224 9.0701L67.4835 8.7625L40.2704 0.55957H39.7475L12.0318 8.7625L0.0247803 20.4312L8.9147 22.8306L8.8942 22.9227V49.0901L27.9147 54.0221V54.5963L29.381 54.4117L39.4912 57.0367H40.5369L71.1442 49.0901V22.9227V22.7587L79.7778 20.4312Z" fill="url(#paint0_radial_14374_48575)"/>
<path d="M66.9917 8.96757L40.9575 15.7555H38.8043L12.032 8.76249L39.7478 0.55957L66.9917 8.96757Z" fill="#4E9EF4"/>
<path d="M40.1265 0.735352C38.7423 4.34464 35.4201 10.2918 29.3501 13.0397L24.541 11.7785L12.9852 8.76397L35.9124 1.97605L40.1265 0.735352Z" fill="#5FA5F4"/>
<path d="M71.2666 22.4727V48.7939L42.946 56.1561L39.8699 56.9456L40.0136 53.0492L47.8678 51.1829L63.3509 47.3686C64.6935 47.0416 65.8871 46.2719 66.7391 45.1837C67.5909 44.0956 68.0518 42.7521 68.0471 41.3703V23.5903L71.2666 22.4727Z" fill="#4E9EF4"/>
<path d="M8.8736 22.4727V47.184C8.8736 48.1068 9.11966 48.958 10.0117 49.2349L36.8045 56.197L40.4447 57.3556L39.7372 53.0902L31.8827 51.2241L16.4305 47.3686C15.0859 47.0435 13.8901 46.2747 13.0361 45.1863C12.1822 44.0981 11.7199 42.7536 11.7241 41.3703V23.5903L8.8736 22.4727Z" fill="#4E9EF4"/>
<path d="M8.87383 40.3041C9.20228 40.3041 9.46855 40.038 9.46855 39.7095C9.46855 39.3811 9.20228 39.1147 8.87383 39.1147C8.54538 39.1147 8.27911 39.3811 8.27911 39.7095C8.27911 40.038 8.54538 40.3041 8.87383 40.3041Z" fill="#8FBEF6"/>
<path d="M40.0142 15.0973C39.9435 15.0973 39.8758 15.0693 39.8258 15.0193C39.7757 14.9693 39.7477 14.9015 39.7477 14.8308V3.10057C39.7477 3.02987 39.7757 2.96205 39.8258 2.91205C39.8758 2.86206 39.9435 2.83398 40.0142 2.83398C40.0851 2.83398 40.1528 2.86206 40.2029 2.91205C40.2527 2.96205 40.2809 3.02987 40.2809 3.10057V14.8308C40.2809 14.9015 40.2527 14.9693 40.2029 15.0193C40.1528 15.0693 40.0851 15.0973 40.0142 15.0973Z" fill="#8FBEF6"/>
<path d="M12.0114 9.18382C11.9118 9.18227 11.816 9.14545 11.7411 9.07988C11.6661 9.01433 11.6169 8.92429 11.6021 8.82583C11.5874 8.72735 11.608 8.62683 11.6604 8.54218C11.7129 8.45751 11.7936 8.39419 11.8883 8.36351L39.5733 0.160585C39.6792 0.128504 39.7938 0.139591 39.8916 0.191434C39.9897 0.243277 40.0631 0.331687 40.0962 0.437433C40.1255 0.546163 40.1121 0.661972 40.0586 0.761115C40.0052 0.860258 39.916 0.935218 39.8091 0.970626L12.1242 9.17356L12.0114 9.18382Z" fill="#8FBEF6"/>
<path d="M67.4633 9.18269C67.4228 9.19269 67.3805 9.19269 67.3402 9.18269L40.1271 0.969509C40.0201 0.934101 39.9308 0.859141 39.8775 0.759998C39.824 0.660856 39.8107 0.545047 39.84 0.436319C39.8542 0.382101 39.879 0.331275 39.9132 0.286829C39.9473 0.242384 39.99 0.205215 40.0388 0.177509C40.0874 0.149804 40.1413 0.132121 40.1969 0.125501C40.2525 0.118881 40.3089 0.123458 40.3628 0.138962L67.5864 8.34188C67.681 8.37257 67.7619 8.43589 67.8143 8.52054C67.8667 8.60521 67.8873 8.70572 67.8724 8.80419C67.8578 8.90267 67.8085 8.99271 67.7336 9.05826C67.6585 9.12383 67.5628 9.16064 67.4633 9.16219V9.18269Z" fill="#8FBEF6"/>
<path d="M41.4492 16.0205H38.2602C38.1896 16.0205 38.1217 15.9924 38.0718 15.9424C38.0217 15.8924 37.9937 15.8246 37.9937 15.7539C37.9937 15.6832 38.0217 15.6154 38.0718 15.5654C38.1217 15.5154 38.1896 15.4873 38.2602 15.4873H41.4492C41.5199 15.4873 41.5878 15.5154 41.6376 15.5654C41.6877 15.6154 41.7157 15.6832 41.7157 15.7539C41.7157 15.8246 41.6877 15.8924 41.6376 15.9424C41.5878 15.9924 41.5199 16.0205 41.4492 16.0205Z" fill="#8FBEF6"/>
<path d="M40.5778 56.0102C40.4779 56.0077 40.383 55.9667 40.3123 55.8963C40.2417 55.8256 40.2009 55.7306 40.1984 55.6308V34.6006C40.1893 34.5448 40.1922 34.4877 40.2075 34.4334C40.2226 34.3788 40.2493 34.3283 40.2858 34.2852C40.3225 34.2422 40.3679 34.2076 40.4193 34.184C40.4704 34.1603 40.5265 34.1479 40.5829 34.1479C40.6393 34.1479 40.6952 34.1603 40.7465 34.184C40.7976 34.2076 40.8433 34.2422 40.8798 34.2852C40.9165 34.3283 40.9432 34.3788 40.9583 34.4334C40.9734 34.4877 40.9765 34.5448 40.9674 34.6006V55.6308C40.9647 55.7325 40.9224 55.8288 40.8496 55.8997C40.7769 55.9706 40.6792 56.0102 40.5778 56.0102Z" fill="#4E9EF4"/>
<path d="M40.5778 32.3863C40.4779 32.3838 40.383 32.3428 40.3123 32.2723C40.2417 32.2017 40.2009 32.1066 40.1984 32.0069V30.8996C40.1893 30.8438 40.1922 30.7867 40.2075 30.7322C40.2226 30.6779 40.2493 30.6274 40.2858 30.5843C40.3225 30.5412 40.3679 30.5066 40.4193 30.4829C40.4704 30.4591 40.5265 30.4468 40.5829 30.4468C40.6393 30.4468 40.6952 30.4591 40.7465 30.4829C40.7976 30.5066 40.8433 30.5412 40.8798 30.5843C40.9165 30.6274 40.9432 30.6779 40.9583 30.7322C40.9734 30.7867 40.9765 30.8438 40.9674 30.8996V32.0478C40.9549 32.1421 40.9084 32.2286 40.8367 32.2908C40.7648 32.3532 40.6727 32.3871 40.5778 32.3863Z" fill="#4E9EF4"/>
<path d="M40.5785 27.9993C40.4779 27.9993 40.3813 27.9592 40.3102 27.8882C40.2389 27.8171 40.199 27.7205 40.199 27.6199V19.8989C40.2139 19.8077 40.2608 19.7248 40.3312 19.6649C40.4017 19.6051 40.491 19.5723 40.5835 19.5723C40.6759 19.5723 40.7654 19.6051 40.8359 19.6649C40.9063 19.7248 40.9532 19.8077 40.9681 19.8989V27.6199C40.9681 27.6706 40.9579 27.7207 40.9381 27.7674C40.9186 27.8143 40.8898 27.8565 40.8533 27.892C40.817 27.9272 40.7739 27.955 40.7268 27.9735C40.6795 27.9919 40.6292 28.0006 40.5785 27.9993Z" fill="#4E9EF4"/>
<path d="M39.4707 57.4574H39.3679L9.95029 49.7978C9.52207 49.6885 9.14246 49.4396 8.87137 49.0908C8.60028 48.7417 8.45318 48.3122 8.45325 47.8702V41.8002C8.45189 41.7439 8.46174 41.6883 8.48226 41.6361C8.50278 41.5839 8.53352 41.5362 8.5727 41.4961C8.61187 41.456 8.65868 41.4241 8.71037 41.4023C8.76204 41.3806 8.81758 41.3694 8.87364 41.3694C8.98609 41.3721 9.09299 41.4186 9.17155 41.499C9.25013 41.5797 9.29408 41.6877 9.29405 41.8002V47.8702C9.29454 48.1255 9.37921 48.3733 9.53495 48.5753C9.69068 48.7773 9.90876 48.9225 10.1554 48.9878L39.5833 56.6269C39.6905 56.6558 39.7819 56.7258 39.8378 56.8219C39.8936 56.918 39.9088 57.0322 39.8806 57.1396C39.8547 57.2291 39.801 57.3081 39.7274 57.3651C39.6536 57.4222 39.5638 57.4547 39.4707 57.4574Z" fill="#8FBEF6"/>
<path d="M8.87431 38.0756C8.76282 38.0756 8.65589 38.0312 8.57704 37.9525C8.4982 37.8736 8.45392 37.7666 8.45392 37.6552V34.8764C8.45392 34.765 8.4982 34.6581 8.57704 34.5791C8.65589 34.5004 8.76282 34.4561 8.87431 34.4561C8.9858 34.4561 9.09273 34.5004 9.17158 34.5791C9.25042 34.6581 9.2947 34.765 9.2947 34.8764V37.6654C9.28955 37.7742 9.24329 37.8772 9.16528 37.9533C9.08726 38.0295 8.98328 38.073 8.87431 38.0756Z" fill="#8FBEF6"/>
<path d="M8.87431 32.1394C8.76282 32.1394 8.65589 32.0952 8.57704 32.0163C8.4982 31.9376 8.45392 31.8306 8.45392 31.719V22.9213C8.45392 22.8099 8.4982 22.703 8.57704 22.6241C8.65589 22.5453 8.76282 22.501 8.87431 22.501C8.985 22.5035 9.09042 22.5487 9.1687 22.627C9.24698 22.7053 9.29211 22.8108 9.2947 22.9213V31.719C9.2947 31.8306 9.25042 31.9376 9.17158 32.0163C9.09273 32.0952 8.9858 32.1394 8.87431 32.1394Z" fill="#8FBEF6"/>
<path d="M40.5157 57.4548C40.4226 57.4521 40.3326 57.4198 40.259 57.3627C40.1853 57.3056 40.1317 57.2265 40.1056 57.1369C40.0805 57.0283 40.0986 56.9141 40.1558 56.8186C40.2134 56.7229 40.3054 56.6533 40.4132 56.6243L69.831 48.9854C70.0784 48.9214 70.2976 48.7768 70.4536 48.5744C70.6095 48.372 70.6936 48.1233 70.6923 47.8678V22.9205C70.708 22.8191 70.7596 22.7266 70.8377 22.6597C70.9157 22.5929 71.0151 22.5562 71.1178 22.5562C71.2205 22.5562 71.3198 22.5929 71.3979 22.6597C71.476 22.7266 71.5275 22.8191 71.5432 22.9205V47.8678C71.5434 48.3096 71.3964 48.7391 71.1252 49.0881C70.8542 49.4372 70.4746 49.6861 70.0464 49.7954L40.6182 57.4345L40.5157 57.4548Z" fill="#8FBEF6"/>
<path d="M27.5047 28.8476C27.2794 28.848 27.0551 28.8169 26.8382 28.7553L10.2785 24.2233C10.2339 24.2114 10.1921 24.1909 10.1556 24.1626C10.119 24.1346 10.0884 24.0994 10.0655 24.0593C10.0426 24.0194 10.0279 23.9751 10.0222 23.9292C10.0166 23.8836 10.02 23.8371 10.0324 23.7926C10.0443 23.748 10.0649 23.7062 10.093 23.6697C10.1212 23.6332 10.1563 23.6024 10.1964 23.5797C10.2364 23.5568 10.2806 23.5419 10.3264 23.5364C10.3722 23.5307 10.4186 23.5341 10.4631 23.5466L27.0022 28.0377C27.3121 28.1276 27.6412 28.1283 27.9514 28.0393C28.2617 27.9504 28.5405 27.7756 28.7557 27.5352L38.3839 16.7176C38.4495 16.6602 38.5339 16.6287 38.6211 16.6289C38.7083 16.6292 38.7924 16.6612 38.8577 16.719C38.9231 16.7768 38.9651 16.8564 38.9761 16.943C38.987 17.0295 38.966 17.1171 38.9169 17.1893L29.2785 27.9967C29.0593 28.2554 28.7881 28.4648 28.4824 28.6114C28.1768 28.7581 27.8436 28.8385 27.5047 28.8476Z" fill="#4E9EF4"/>
<path d="M52.3184 28.9605C52.0215 28.9582 51.7289 28.8888 51.4623 28.7572C51.196 28.6259 50.9628 28.436 50.7803 28.2017L41.0906 17.0354C41.0295 16.9647 40.9989 16.8726 41.0057 16.7793C41.0123 16.6861 41.0558 16.5993 41.1266 16.5381C41.1973 16.4769 41.2894 16.4463 41.3826 16.4531C41.4759 16.4598 41.5627 16.5033 41.6238 16.574L51.293 27.7402C51.4621 27.9678 51.7006 28.134 51.9727 28.2136C52.2447 28.2932 52.5355 28.2817 52.8003 28.1811L69.3293 23.7208C69.4191 23.6962 69.5148 23.7085 69.5956 23.7546C69.6762 23.8008 69.7355 23.8772 69.7599 23.9668C69.7845 24.0565 69.7722 24.1525 69.7261 24.2331C69.6799 24.3139 69.6035 24.3732 69.5139 24.3976L52.9849 28.8476C52.7691 28.9162 52.5448 28.9542 52.3184 28.9605Z" fill="#4E9EF4"/>
<path d="M1.6858 20.0008C1.55057 19.9989 1.42158 19.9436 1.32692 19.847C1.27948 19.8011 1.24175 19.7461 1.21599 19.6854C1.19022 19.6246 1.17694 19.5592 1.17694 19.4933C1.17694 19.4272 1.19022 19.3619 1.21599 19.3011C1.24175 19.2403 1.27948 19.1854 1.32692 19.1395L10.8423 9.7984C11.1556 9.49107 11.5432 9.27004 11.9672 9.15683C12.3913 9.04364 12.8374 9.04211 13.2622 9.15244L36.3226 15.3046C36.3867 15.3221 36.4466 15.3521 36.499 15.3927C36.5514 15.4333 36.5951 15.4839 36.628 15.5415C36.6609 15.5991 36.6821 15.6627 36.6904 15.7284C36.6987 15.7942 36.694 15.861 36.6764 15.925C36.659 15.9889 36.6291 16.0488 36.5883 16.1012C36.5478 16.1536 36.4971 16.1975 36.4396 16.2303C36.3819 16.2632 36.3184 16.2844 36.2526 16.2927C36.1868 16.301 36.12 16.2962 36.0561 16.2787L12.9956 10.1265C12.7424 10.0586 12.4759 10.0579 12.2224 10.1244C11.9688 10.1909 11.737 10.3224 11.5498 10.5059L2.07544 19.8572C2.0234 19.906 1.9621 19.9439 1.89517 19.9685C1.82824 19.9932 1.75705 20.0041 1.6858 20.0008Z" fill="#C0D6F9"/>
<path d="M43.4897 16.2173C43.4116 16.2172 43.3358 16.1908 43.2745 16.1425C43.213 16.0942 43.1697 16.0266 43.1514 15.9507C43.1389 15.9062 43.1355 15.8598 43.141 15.814C43.1468 15.7682 43.1616 15.724 43.1843 15.6839C43.2073 15.6439 43.238 15.6088 43.2745 15.5806C43.311 15.5525 43.3528 15.5319 43.3974 15.52L66.458 9.36783C66.5023 9.35542 66.5488 9.35196 66.5946 9.35762C66.6405 9.36331 66.6846 9.37802 66.7247 9.40091C66.7646 9.42381 66.7998 9.45441 66.828 9.49097C66.8561 9.52753 66.8766 9.56934 66.8885 9.61392C66.9008 9.65903 66.9038 9.70617 66.8974 9.75249C66.8913 9.79883 66.8756 9.8434 66.8516 9.88359C66.8278 9.92376 66.796 9.95873 66.7582 9.98638C66.7207 10.014 66.6778 10.0338 66.6322 10.0446L43.582 16.1968L43.4897 16.2173Z" fill="#C0D6F9"/>
<path d="M27.7097 28.3063C27.628 28.3163 27.5455 28.3163 27.4635 28.3063L0.742603 21.1287C0.583517 21.0861 0.438562 21.002 0.322467 20.8852C0.206372 20.7684 0.123272 20.6229 0.0816107 20.4635C0.0399498 20.3042 0.0412126 20.1366 0.0852705 19.9779C0.129329 19.8192 0.214611 19.675 0.332455 19.5599L11.714 8.46545C11.7653 8.41344 11.8286 8.37495 11.8985 8.35348C11.9682 8.332 12.0423 8.3282 12.1139 8.34242L38.9067 15.3354C38.9759 15.3553 39.0394 15.3919 39.0911 15.442C39.1429 15.492 39.1817 15.554 39.204 15.6225C39.2246 15.6924 39.2278 15.7663 39.2136 15.8377C39.1991 15.9091 39.1677 15.976 39.1221 16.0327L33.6261 22.1849C33.5514 22.2692 33.4461 22.3203 33.3337 22.3271C33.2212 22.3337 33.1107 22.2955 33.0262 22.2208C32.942 22.1459 32.8908 22.0408 32.884 21.9282C32.8774 21.8157 32.9156 21.7051 32.9903 21.6209L38.0352 15.9917L12.1344 9.23447L0.937421 20.1034V20.2572L27.6586 27.4348L30.7346 24.0408C30.8093 23.9579 30.9139 23.908 31.0256 23.9023C31.1372 23.8965 31.2463 23.9352 31.3292 24.0101C31.4122 24.0848 31.4621 24.1894 31.4678 24.301C31.4735 24.4126 31.4349 24.5217 31.36 24.6047L28.4276 27.9986C28.3372 28.0988 28.2262 28.1781 28.1023 28.2312C27.9783 28.2842 27.8444 28.3099 27.7097 28.3063Z" fill="#8FBEF6"/>
<path d="M40.0142 55.889C39.9452 55.889 39.879 55.8625 39.8294 55.8146C39.7795 55.7668 39.7502 55.7017 39.7477 55.6327V34.6025C39.7477 34.5318 39.7757 34.4639 39.8258 34.414C39.8758 34.3639 39.9435 34.3359 40.0142 34.3359C40.0851 34.3359 40.1528 34.3639 40.2029 34.414C40.2527 34.4639 40.2809 34.5318 40.2809 34.6025V55.6327C40.2782 55.7017 40.2489 55.7668 40.1992 55.8146C40.1496 55.8625 40.0832 55.889 40.0142 55.889Z" fill="#8FBEF6"/>
<path d="M40.0142 32.2654C39.9452 32.2654 39.879 32.2388 39.8294 32.1909C39.7795 32.1431 39.7502 32.078 39.7477 32.009V30.9017C39.7477 30.8309 39.7757 30.7632 39.8258 30.7131C39.8758 30.6632 39.9435 30.635 40.0142 30.635C40.0851 30.635 40.1528 30.6632 40.2029 30.7131C40.2527 30.7632 40.2809 30.8309 40.2809 30.9017V32.05C40.2688 32.1115 40.2355 32.1669 40.1867 32.2061C40.1379 32.2456 40.077 32.2666 40.0142 32.2654Z" fill="#8FBEF6"/>
<path d="M40.0142 27.8869C39.9792 27.8869 39.9446 27.8801 39.9123 27.8668C39.8799 27.8534 39.8506 27.8337 39.8258 27.8088C39.8009 27.7842 39.7814 27.7547 39.7681 27.7225C39.7545 27.69 39.7477 27.6554 39.7477 27.6204V19.8994C39.7477 19.8287 39.7757 19.7609 39.8258 19.7109C39.8758 19.6609 39.9435 19.6328 40.0142 19.6328C40.0851 19.6328 40.1528 19.6609 40.2029 19.7109C40.2527 19.7609 40.2809 19.8287 40.2809 19.8994V27.6204C40.2809 27.6911 40.2527 27.759 40.2029 27.8088C40.1528 27.8589 40.0851 27.8869 40.0142 27.8869Z" fill="#8FBEF6"/>
<path d="M52.2459 28.4082C52.1003 28.408 51.9564 28.3768 51.8238 28.3165C51.6914 28.2565 51.573 28.1688 51.4769 28.0596L40.7823 16.1037C40.7227 16.0384 40.6809 15.9587 40.6612 15.8725C40.6414 15.7862 40.6444 15.6963 40.6696 15.6115C40.6966 15.5259 40.7445 15.4482 40.8088 15.3856C40.8734 15.323 40.9523 15.2773 41.0387 15.2527L67.8314 8.25966C67.9182 8.239 68.0086 8.24037 68.0946 8.26365C68.1805 8.28695 68.2592 8.33141 68.3237 8.39297L79.6848 19.4259C79.8202 19.5552 79.9174 19.7192 79.9662 19.8999C80.015 20.0807 80.0135 20.2714 79.9615 20.4513C79.9153 20.626 79.8234 20.7854 79.6956 20.9133C79.5677 21.0411 79.4083 21.1329 79.2337 21.1793L52.5126 28.3569C52.4271 28.3883 52.3369 28.4057 52.2459 28.4082ZM42.1154 16.0422L52.2459 27.3213L78.9669 20.1437L67.8111 9.36706L42.1154 16.0422Z" fill="#8FBEF6"/>
<path d="M32.1696 23.7621C32.4981 23.7621 32.7644 23.4958 32.7644 23.1676C32.7644 22.8391 32.4981 22.5728 32.1696 22.5728C31.8413 22.5728 31.575 22.8391 31.575 23.1676C31.575 23.4958 31.8413 23.7621 32.1696 23.7621Z" fill="#8FBEF6"/>
</g>
<defs>
<radialGradient id="paint0_radial_14374_48575" cx="0" cy="0" r="1" gradientUnits="userSpaceOnUse" gradientTransform="translate(39.8936 32.9974) rotate(90) scale(19.8408 28.0179)">
<stop stop-color="#DEEDFF"/>
<stop offset="1" stop-color="#71AEF5"/>
</radialGradient>
<clipPath id="clip0_14374_48575">
<rect width="80" height="57.5066" fill="white"/>
</clipPath>
</defs>
</svg>
